<?xml version="1.0" encoding="utf-8" standalone="yes"?>
<!DOCTYPE svg PUBLIC "-//W3C//DTD SVG 1.1//EN" "http://www.w3.org/Graphics/SVG/1.1/DTD/svg11.dtd">
<svg width="744" height="480" viewBox="0 0 744 480" style="fill:none;stroke:none;fill-rule:evenodd;clip-rule:evenodd;stroke-linecap:round;stroke-linejoin:round;stroke-miterlimit:1.5;" version="1.1" xmlns="http://www.w3.org/2000/svg" xmlns:xlink="http://www.w3.org/1999/xlink"><style class="text-font-style fontImports" data-font-family="Roboto">@import url('https://fonts.googleapis.com/css2?family=Roboto:wght@400;700&amp;display=block');</style><g id="items" style="isolation: isolate"><g id="blend" style="mix-blend-mode: normal"><g id="g-root-cp_-1_lines_1q889zxgfeia5-fill" data-item-order="-267255" transform="translate(362, 146)"></g><g id="g-root-cp_1_g-1_v6487xgfej2f-fill" data-item-order="-267252" transform="translate(350, 122)"><g id="cp_1_g-1_v6487xgfej2f-fill" stroke="none" fill="url(#gradient-76aaff-163240667)"><g><path d="M 16 22C 16 25.313709 18.686292 28 22 28C 25.313709 28 28 25.313709 28 22C 28 18.686292 25.313709 16 22 16C 18.686292 16 16 18.686292 16 22"></path></g></g></g><g id="g-root-cp_2_g-2_4jtokdgfej2h-fill" data-item-order="-267244" transform="translate(314, 170)"><g id="cp_2_g-2_4jtokdgfej2h-fill" stroke="none" fill="url(#gradient-4dd3ff-378786070)"><g><path d="M 52 22C 52 25.3137 54.6863 28 58 28C 61.3137 28 64 25.3137 64 22C 64 18.6863 61.3137 16 58 16C 54.6863 16 52 18.6863 52 22Z"></path></g></g></g><g id="g-root-cp_3_g-3_1cyn6vxgfeivf-fill" data-item-order="-267236" transform="translate(350, 218)"><g id="cp_3_g-3_1cyn6vxgfeivf-fill" stroke="none" fill="url(#gradient-64edab-240055791)"><g><path d="M 16 22C 16 25.313709 18.686292 28 22 28C 25.313709 28 28 25.313709 28 22C 28 18.686292 25.313709 16 22 16C 18.686292 16 16 18.686292 16 22"></path></g></g></g><g id="g-root-cp_4_g-4_mccn8dgfeivh-fill" data-item-order="-267228" transform="translate(314, 266)"><g id="cp_4_g-4_mccn8dgfeivh-fill" stroke="none" fill="url(#gradient-bceb57-497517668)"><g><path d="M 52 22C 52 25.3137 54.6863 28 58 28C 61.3137 28 64 25.3137 64 22C 64 18.6863 61.3137 16 58 16C 54.6863 16 52 18.6863 52 22Z"></path></g></g></g><g id="g-root-cp_5_g-5_4lp3tpgfei2v-fill" data-item-order="-267220" transform="translate(350, 314)"><g id="cp_5_g-5_4lp3tpgfei2v-fill" stroke="none" fill="url(#gradient-ffed4b-499785973)"><g><path d="M 16 22C 16 25.313709 18.686292 28 22 28C 25.313709 28 28 25.313709 28 22C 28 18.686292 25.313709 16 22 16C 18.686292 16 16 18.686292 16 22"></path></g></g></g><g id="g-root-cp_6_g-6_1qbcnfhgfejgp-fill" data-item-order="-267212" transform="translate(314, 362)"><defs><linearGradient id="gradient-76aaff-163240667" x2="0" y2="1"><stop offset="0" stop-color="#9cc2ff"></stop><stop offset="1" stop-color="#4f92ff"></stop></linearGradient><linearGradient id="gradient-4dd3ff-378786070" x2="0" y2="1"><stop offset="0" stop-color="#7fdfff"></stop><stop offset="1" stop-color="#1ac6ff"></stop></linearGradient><linearGradient id="gradient-64edab-240055791" x2="0" y2="1"><stop offset="0" stop-color="#83fac1"></stop><stop offset="1" stop-color="#44e095"></stop></linearGradient><linearGradient id="gradient-bceb57-497517668" x2="0" y2="1"><stop offset="0" stop-color="#cff976"></stop><stop offset="1" stop-color="#a8dd38"></stop></linearGradient><linearGradient id="gradient-ffed4b-499785973" x2="0" y2="1"><stop offset="0" stop-color="#fff282"></stop><stop offset="1" stop-color="#ffe714"></stop></linearGradient><linearGradient id="gradient-fdac61-172712277" x2="0" y2="1"><stop offset="0" stop-color="#ffc188"></stop><stop offset="1" stop-color="#fa963a"></stop></linearGradient></defs><g id="cp_6_g-6_1qbcnfhgfejgp-fill" stroke="none" fill="url(#gradient-fdac61-172712277)"><g><path d="M 52 22C 52 25.3137 54.6863 28 58 28C 61.3137 28 64 25.3137 64 22C 64 18.6863 61.3137 16 58 16C 54.6863 16 52 18.6863 52 22Z"></path></g></g></g><g id="g-root-tx_devicege_zqxj19gfeih1-fill" data-item-order="0" transform="translate(482, 146)"><g id="tx_devicege_zqxj19gfeih1-fill" stroke="none" fill="#484848"><g><text style="font: 15px Roboto, sans-serif; white-space: pre;" font-size="15px" font-family="Roboto, sans-serif"><tspan x="12" y="28" dominant-baseline="ideographic">Device geometry, operating </tspan><tspan x="12" y="46" dominant-baseline="ideographic">points, model constants</tspan></text></g></g></g><g id="g-root-ic_cons_4jtrq5gf7hmo-fill" data-item-order="0" transform="translate(254, 158)"></g><g id="g-root-tx_solvespo_zlxti5gf7guf-fill" data-item-order="0" transform="translate(50, 194)"><g id="tx_solvespo_zlxti5gf7guf-fill" stroke="none" fill="#484848"><g><text style="font: 15px Roboto, sans-serif; white-space: pre;" font-size="15px" font-family="Roboto, sans-serif"><tspan x="33.44" y="28" dominant-baseline="ideographic">Solves Poisson equation, </tspan><tspan x="16.83" y="46" dominant-baseline="ideographic">computes surface potential</tspan></text></g></g></g><g id="g-root-tx_electros_8xrul9gf7hu6-fill" data-item-order="0" transform="translate(50, 158)"><g id="tx_electros_8xrul9gf7hu6-fill" stroke="none" fill="#1eabda"><g><text style="font: bold 20px Roboto, sans-serif; white-space: pre;" font-weight="bold" font-size="20px" font-family="Roboto, sans-serif"><tspan x="14.66" y="34" dominant-baseline="ideographic">Electrostatics Solver</tspan></text></g></g></g><g id="g-root-tx_plotsidv_hxs9lpgfaarv-fill" data-item-order="0" transform="translate(26, 385.9998779296875)"><g id="tx_plotsidv_hxs9lpgfaarv-fill" stroke="none" fill="#484848"><g><text style="font: 15px Roboto, sans-serif; white-space: pre;" font-size="15px" font-family="Roboto, sans-serif"><tspan x="16" y="31" dominant-baseline="ideographic">Plots Id-Vg, Id-Vd, Cg-Vg curves</tspan></text></g></g></g><g id="g-root-tx_quantumc_1uux38dgffwug-fill" data-item-order="0" transform="translate(482, 206)"><g id="tx_quantumc_1uux38dgffwug-fill" stroke="none" fill="#3cc583"><g><text style="font: bold 20px Roboto, sans-serif; white-space: pre;" font-weight="bold" font-size="20px" font-family="Roboto, sans-serif"><tspan x="12" y="34" dominant-baseline="ideographic">Quantum Correction</tspan></text></g></g></g><g id="g-root-tx_chargede_hssdr1gflkw8-fill" data-item-order="0" transform="translate(74, 254)"><g id="tx_chargede_hssdr1gflkw8-fill" stroke="none" fill="#92bd39"><g><text style="font: bold 20px Roboto, sans-serif; white-space: pre;" font-weight="bold" font-size="20px" font-family="Roboto, sans-serif"><tspan x="22.96" y="34" dominant-baseline="ideographic">Charge Densities </tspan><tspan x="108.65" y="58" dominant-baseline="ideographic">Module</tspan></text></g></g></g><g id="g-root-ic_flas_mahb4tgflj4a-fill" data-item-order="0" transform="translate(254, 254)"></g><g id="g-root-tx_computes_qn6ftpgfhczt-fill" data-item-order="0" transform="translate(482, 242)"><g id="tx_computes_qn6ftpgfhczt-fill" stroke="none" fill="#484848"><g><text style="font: 15px Roboto, sans-serif; white-space: pre;" font-size="15px" font-family="Roboto, sans-serif"><tspan x="12" y="28" dominant-baseline="ideographic">Computes quantum shift using </tspan><tspan x="12" y="46" dominant-baseline="ideographic">triangular well approximation</tspan></text></g></g></g><g id="g-root-tx_paramete_1qd82otgfeih0-fill" data-item-order="0" transform="translate(482, 110)"><g id="tx_paramete_1qd82otgfeih0-fill" stroke="none" fill="#4e88e7"><g><text style="font: bold 20px Roboto, sans-serif; white-space: pre;" font-weight="bold" font-size="20px" font-family="Roboto, sans-serif"><tspan x="12" y="34" dominant-baseline="ideographic">Parameters Initialization</tspan></text></g></g></g><g id="g-root-tx_calculat_1cwrusdgflj49-fill" data-item-order="0" transform="translate(74, 314)"><g id="tx_calculat_1cwrusdgflj49-fill" stroke="none" fill="#484848"><g><text style="font: 15px Roboto, sans-serif; white-space: pre;" font-size="15px" font-family="Roboto, sans-serif"><tspan x="13.19" y="28" dominant-baseline="ideographic">Calculates inversion and </tspan><tspan x="57.1" y="46" dominant-baseline="ideographic">depletion charges</tspan></text></g></g></g><g id="g-root-ic_1_8zz4tgfej9q-fill" data-item-order="0" transform="translate(422, 110)"></g><g id="g-root-ic_down_1ha3gkdgfr4sm-fill" data-item-order="0" transform="translate(422, 302)"></g><g id="g-root-tx_draincur_1id99gfpres-fill" data-item-order="0" transform="translate(482, 302)"><g id="tx_draincur_1id99gfpres-fill" stroke="none" fill="#e0cb15"><g><text style="font: bold 20px Roboto, sans-serif; white-space: pre;" font-weight="bold" font-size="20px" font-family="Roboto, sans-serif"><tspan x="12" y="34" dominant-baseline="ideographic">Drain Current </tspan><tspan x="12" y="58" dominant-baseline="ideographic">Calculation (Ids)</tspan></text></g></g></g><g id="g-root-tx_outputvi_1luwujhgfaccq-fill" data-item-order="0" transform="translate(26, 350)"><g id="tx_outputvi_1luwujhgfaccq-fill" stroke="none" fill="#de8431"><g><text style="font: bold 20px Roboto, sans-serif; white-space: pre;" font-weight="bold" font-size="20px" font-family="Roboto, sans-serif"><tspan x="23.36" y="34" dominant-baseline="ideographic">Output &amp; Visualization</tspan></text></g></g></g><g id="g-root-ic_1_1lws9stgfabd0-fill" data-item-order="0" transform="translate(254, 350)"></g><g id="g-root-tx_simulati_me82hpgfehvv-fill" data-item-order="0" transform="translate(194, 38)"><g id="tx_simulati_me82hpgfehvv-fill" stroke="none" fill="#484848"><g><text style="font: 20px Roboto, sans-serif; white-space: pre;" font-size="20px" font-family="Roboto, sans-serif"><tspan x="15.73" y="34" dominant-baseline="ideographic">Simulation Script Execution Timeline</tspan></text></g></g></g><g id="g-root-tx_usesdrif_18jg90dgfprm5-fill" data-item-order="0" transform="translate(482, 361.9998779296875)"><g id="tx_usesdrif_18jg90dgfprm5-fill" stroke="none" fill="#484848"><g><text style="font: 15px Roboto, sans-serif; white-space: pre;" font-size="15px" font-family="Roboto, sans-serif"><tspan x="12" y="28" dominant-baseline="ideographic">Uses drift-diffusion model to </tspan><tspan x="12" y="46" dominant-baseline="ideographic">calculate drain current</tspan></text></g></g></g><g id="g-root-ic_qual_1um6g0tgfhdky-fill" data-item-order="0" transform="translate(422, 206)"></g><g id="g-root-cp_-1_lines_1q889zxgfeia5-stroke" data-item-order="-267255" transform="translate(362, 146)"><g id="cp_-1_lines_1q889zxgfeia5-stroke" fill="none" stroke-linecap="round" stroke-linejoin="round" stroke-miterlimit="4" stroke="#484848" stroke-width="2"><g><path d="M 10 10L 10 34M 10 58L 10 82M 10 106L 10 130M 10 154L 10 178M 10 202L 10 226"></path></g></g></g><g id="g-root-cp_1_g-1_v6487xgfej2f-stroke" data-item-order="-267252" transform="translate(350, 122)"><g id="cp_1_g-1_v6487xgfej2f-stroke" fill="none" stroke-linecap="round" stroke-linejoin="round" stroke-miterlimit="4" stroke="#484848" stroke-width="2"><g><path d="M 16 22C 16 25.313709 18.686292 28 22 28C 25.313709 28 28 25.313709 28 22C 28 18.686292 25.313709 16 22 16C 18.686292 16 16 18.686292 16 22"></path></g></g><g id="cp_1_g-1_v6487xgfej2f-stroke" fill="none" stroke-linecap="round" stroke-linejoin="round" stroke-miterlimit="4" stroke="#484848" stroke-width="2"><g><path d="M 10 22C 10 28.627417 15.372583 34 22 34C 28.627417 34 34 28.627417 34 22C 34 15.372583 28.627417 10 22 10C 15.372583 10 10 15.372583 10 22M 34 22L 70 22"></path></g></g></g><g id="g-root-cp_2_g-2_4jtokdgfej2h-stroke" data-item-order="-267244" transform="translate(314, 170)"><g id="cp_2_g-2_4jtokdgfej2h-stroke" fill="none" stroke-linecap="round" stroke-linejoin="round" stroke-miterlimit="4" stroke="#484848" stroke-width="2"><g><path d="M 52 22C 52 25.3137 54.6863 28 58 28C 61.3137 28 64 25.3137 64 22C 64 18.6863 61.3137 16 58 16C 54.6863 16 52 18.6863 52 22ZM 46 22C 46 28.6274 51.3726 34 58 34C 64.6274 34 70 28.6274 70 22C 70 15.3726 64.6274 10 58 10C 51.3726 10 46 15.3726 46 22ZM 46 22L 10 22"></path></g></g></g><g id="g-root-cp_3_g-3_1cyn6vxgfeivf-stroke" data-item-order="-267236" transform="translate(350, 218)"><g id="cp_3_g-3_1cyn6vxgfeivf-stroke" fill="none" stroke-linecap="round" stroke-linejoin="round" stroke-miterlimit="4" stroke="#484848" stroke-width="2"><g><path d="M 16 22C 16 25.313709 18.686292 28 22 28C 25.313709 28 28 25.313709 28 22C 28 18.686292 25.313709 16 22 16C 18.686292 16 16 18.686292 16 22"></path></g></g><g id="cp_3_g-3_1cyn6vxgfeivf-stroke" fill="none" stroke-linecap="round" stroke-linejoin="round" stroke-miterlimit="4" stroke="#484848" stroke-width="2"><g><path d="M 10 22C 10 28.627417 15.372583 34 22 34C 28.627417 34 34 28.627417 34 22C 34 15.372583 28.627417 10 22 10C 15.372583 10 10 15.372583 10 22M 34 22L 70 22"></path></g></g></g><g id="g-root-cp_4_g-4_mccn8dgfeivh-stroke" data-item-order="-267228" transform="translate(314, 266)"><g id="cp_4_g-4_mccn8dgfeivh-stroke" fill="none" stroke-linecap="round" stroke-linejoin="round" stroke-miterlimit="4" stroke="#484848" stroke-width="2"><g><path d="M 52 22C 52 25.3137 54.6863 28 58 28C 61.3137 28 64 25.3137 64 22C 64 18.6863 61.3137 16 58 16C 54.6863 16 52 18.6863 52 22ZM 46 22C 46 28.6274 51.3726 34 58 34C 64.6274 34 70 28.6274 70 22C 70 15.3726 64.6274 10 58 10C 51.3726 10 46 15.3726 46 22ZM 46 22L 10 22"></path></g></g></g><g id="g-root-cp_5_g-5_4lp3tpgfei2v-stroke" data-item-order="-267220" transform="translate(350, 314)"><g id="cp_5_g-5_4lp3tpgfei2v-stroke" fill="none" stroke-linecap="round" stroke-linejoin="round" stroke-miterlimit="4" stroke="#484848" stroke-width="2"><g><path d="M 16 22C 16 25.313709 18.686292 28 22 28C 25.313709 28 28 25.313709 28 22C 28 18.686292 25.313709 16 22 16C 18.686292 16 16 18.686292 16 22"></path></g></g><g id="cp_5_g-5_4lp3tpgfei2v-stroke" fill="none" stroke-linecap="round" stroke-linejoin="round" stroke-miterlimit="4" stroke="#484848" stroke-width="2"><g><path d="M 10 22C 10 28.627417 15.372583 34 22 34C 28.627417 34 34 28.627417 34 22C 34 15.372583 28.627417 10 22 10C 15.372583 10 10 15.372583 10 22M 34 22L 70 22"></path></g></g></g><g id="g-root-cp_6_g-6_1qbcnfhgfejgp-stroke" data-item-order="-267212" transform="translate(314, 362)"><g id="cp_6_g-6_1qbcnfhgfejgp-stroke" fill="none" stroke-linecap="round" stroke-linejoin="round" stroke-miterlimit="4" stroke="#484848" stroke-width="2"><g><path d="M 52 22C 52 25.3137 54.6863 28 58 28C 61.3137 28 64 25.3137 64 22C 64 18.6863 61.3137 16 58 16C 54.6863 16 52 18.6863 52 22ZM 46 22C 46 28.6274 51.3726 34 58 34C 64.6274 34 70 28.6274 70 22C 70 15.3726 64.6274 10 58 10C 51.3726 10 46 15.3726 46 22ZM 46 22L 10 22"></path></g></g></g><g id="g-root-tx_devicege_zqxj19gfeih1-stroke" data-item-order="0" transform="translate(482, 146)"></g><g id="g-root-ic_cons_4jtrq5gf7hmo-stroke" data-item-order="0" transform="translate(254, 158)"><g id="ic_cons_4jtrq5gf7hmo-stroke" fill="none" stroke-linecap="round" stroke-linejoin="round" stroke-miterlimit="4" stroke="#484848" stroke-width="2"><g><path d="M 43.292 41.148003L 53.591999 41.148003C 53.591999 41.148003 55.591999 41.148003 55.591999 43.147999L 55.591999 53.448002C 55.591999 53.448002 55.591999 55.448002 53.591999 55.448002L 43.292 55.448002C 43.292 55.448002 41.292 55.448002 41.292 53.448002L 41.292 43.147999C 41.292 43.147999 41.292 41.148003 43.292 41.148003M 27.292959 20L 41.369202 20C 45.276199 20 48.443401 23.16724 48.443401 27.074221C 48.443401 30.981199 45.276199 34.148399 41.369202 34.148399L 34.597401 34.148399M 35.311199 34.148399L 27.21484 34.148399C 23.307861 34.148399 20.140621 37.315598 20.140621 41.222603C 20.140621 45.129601 23.307861 48.296799 27.21484 48.296799L 41.591801 48.296799M 12.408 19.998001C 12.408001 24.108105 15.739897 27.440001 19.85 27.440001C 23.960102 27.440001 27.292 24.108105 27.292 19.998001C 27.292 15.887897 23.960102 12.556001 19.85 12.556001C 15.739897 12.556001 12.408001 15.887897 12.408001 19.998001"></path></g></g></g><g id="g-root-tx_solvespo_zlxti5gf7guf-stroke" data-item-order="0" transform="translate(50, 194)"></g><g id="g-root-tx_electros_8xrul9gf7hu6-stroke" data-item-order="0" transform="translate(50, 158)"></g><g id="g-root-tx_plotsidv_hxs9lpgfaarv-stroke" data-item-order="0" transform="translate(26, 385.9998779296875)"></g><g id="g-root-tx_quantumc_1uux38dgffwug-stroke" data-item-order="0" transform="translate(482, 206)"></g><g id="g-root-tx_chargede_hssdr1gflkw8-stroke" data-item-order="0" transform="translate(74, 254)"></g><g id="g-root-ic_flas_mahb4tgflj4a-stroke" data-item-order="0" transform="translate(254, 254)"><g id="ic_flas_mahb4tgflj4a-stroke" fill="none" stroke-linecap="round" stroke-linejoin="round" stroke-miterlimit="4" stroke="#484848" stroke-width="2"><g><path d="M 33.309998 45.882L 15.218 45.882C 12.888463 45.882 11 43.993538 11 41.664001L 11 15.304C 11 12.974463 12.888463 11.086 15.218 11.086L 46.849998 11.086C 49.178757 11.087104 51.066002 12.975244 51.066002 15.304L 51.066002 24.934M 11 19.321999L 51.066002 19.321999M 11 36.823997L 39.098 36.823997M 11 28.087999L 45.998001 28.087999M 27.364 19.321999L 27.364 45.882M 39.098 19.321999L 39.098 36.823997M 51.248001 29.948L 39.914001 43.694C 39.73101 43.919506 39.690052 44.228626 39.808002 44.494003C 39.920639 44.755566 40.177223 44.925835 40.461998 44.928001L 45.495998 44.928001L 45.495998 56.914001L 56.827999 43.164001C 57.011433 42.938686 57.052425 42.629307 56.933998 42.363998C 56.821655 42.103092 56.566051 41.932953 56.281998 41.93L 51.248001 41.93Z"></path></g></g></g><g id="g-root-tx_computes_qn6ftpgfhczt-stroke" data-item-order="0" transform="translate(482, 242)"></g><g id="g-root-tx_paramete_1qd82otgfeih0-stroke" data-item-order="0" transform="translate(482, 110)"></g><g id="g-root-tx_calculat_1cwrusdgflj49-stroke" data-item-order="0" transform="translate(74, 314)"></g><g id="g-root-ic_1_8zz4tgfej9q-stroke" data-item-order="0" transform="translate(422, 110)"><g id="ic_1_8zz4tgfej9q-stroke" fill="none" stroke-linecap="round" stroke-linejoin="round" stroke-miterlimit="4" stroke="#484848" stroke-width="2"><g><path d="M 37.5 46.5C 40.261398 46.5 42.5 43.813801 42.5 40.5C 42.5 37.186199 40.261398 34.5 37.5 34.5C 34.738602 34.5 32.5 37.186199 32.5 40.5C 32.5 43.813801 34.738602 46.5 37.5 46.5ZM 37.5 56.5L 37.5 46.5M 48.5 56.5L 48.5 48.5M 48.5 48.5L 56.5 48.5C 56.5 44.5 56.5 38.5 48.5 34.5L 48.5 48.5ZM 26.9 47.5L 14.5 47.5C 12.9 47.5 11.5 46.099998 11.5 44.5L 11.5 23.5C 11.5 21.9 12.9 20.5 14.5 20.5L 44.5 20.5C 46.099998 20.5 47.5 21.9 47.5 23.5L 47.5 26.9M 46.5 21.30002L 40.900002 12.9C 40.299999 12.1 39.5 11.5 38.5 11.5L 20.700001 11.5C 19.700001 11.5 18.700001 12.1 18.299999 12.9L 12.5 21.30002M 29.5 11.5L 29.5 20.5"></path></g></g></g><g id="g-root-ic_down_1ha3gkdgfr4sm-stroke" data-item-order="0" transform="translate(422, 302)"><g id="ic_down_1ha3gkdgfr4sm-stroke" fill="none" stroke-linecap="round" stroke-linejoin="round" stroke-miterlimit="4" stroke="#484848" stroke-width="2"><g><path d="M 10 10M 27 51L 33 57L 39 51M 11 11L 11 25C 11 26.10457 11.895431 27 13 27L 55 27C 56.104568 27 57 26.10457 57 25L 57 11M 33 27L 33 56"></path></g></g></g><g id="g-root-tx_draincur_1id99gfpres-stroke" data-item-order="0" transform="translate(482, 302)"></g><g id="g-root-tx_outputvi_1luwujhgfaccq-stroke" data-item-order="0" transform="translate(26, 350)"></g><g id="g-root-ic_1_1lws9stgfabd0-stroke" data-item-order="0" transform="translate(254, 350)"><g id="ic_1_1lws9stgfabd0-stroke" fill="none" stroke-linecap="round" stroke-linejoin="round" stroke-miterlimit="4" stroke="#484848" stroke-width="2"><g><path d="M 13.062 11.008L 55.062 11.008C 55.062 11.008 57.062 11.008 57.062 13.007999L 57.062 55.007999C 57.062 55.007999 57.062 57.007999 55.062 57.007999L 13.062 57.007999C 13.062 57.007999 11.062 57.007999 11.062 55.007999L 11.062 13.007999C 11.062 13.007999 11.062 11.008 13.062 11.008M 25.062 49C 20.643723 49 17.062 45.418278 17.062 41C 17.062 36.581722 20.643723 33 25.062 33M 37.062 33.031998L 32.77 33.031998C 31.049204 33.030762 29.553677 34.213577 29.158457 35.888374C 28.763237 37.563171 29.572193 39.289799 31.112001 40.057999L 35.012001 42.007999C 36.549461 42.777351 37.356449 44.502625 36.961487 46.175858C 36.566521 47.849087 35.073212 49.03138 33.354 49.032001L 29.062 49.032001M 49.062 33L 49.062 37.599998C 49.061443 41.743896 47.650791 45.764256 45.062 49C 42.474056 45.763786 41.063511 41.743732 41.061996 37.599998L 41.062 33"></path></g></g></g><g id="g-root-tx_simulati_me82hpgfehvv-stroke" data-item-order="0" transform="translate(194, 38)"></g><g id="g-root-tx_usesdrif_18jg90dgfprm5-stroke" data-item-order="0" transform="translate(482, 361.9998779296875)"></g><g id="g-root-ic_qual_1um6g0tgfhdky-stroke" data-item-order="0" transform="translate(422, 206)"><g id="ic_qual_1um6g0tgfhdky-stroke" fill="none" stroke-linecap="round" stroke-linejoin="round" stroke-miterlimit="4" stroke="#484848" stroke-width="2"><g><path d="M 54 31C 54 19.954306 45.045696 11.000001 34 11.000001C 22.954306 11.000001 14 19.954306 14 31C 14 42.045696 22.954306 51 34 51C 36.092659 50.986809 38.170639 50.649475 40.16 50L 42.740002 56.34C 42.896141 56.720207 43.269024 56.966152 43.68 56.959999L 46.52 56.959999C 46.849979 56.960739 47.158176 56.795368 47.34 56.52C 47.489677 56.224541 47.489677 55.875454 47.339996 55.579998L 44.259998 48.060001C 50.268211 44.469444 53.962223 37.999233 54 31ZM 42.299999 43L 39.260002 35.540001C 39.103859 35.15979 38.730972 34.913849 38.32 34.919998L 35.48 34.919998C 35.150021 34.919258 34.841827 35.084633 34.66 35.360001C 34.477962 35.639206 34.440777 35.988743 34.559998 36.299995L 38.220001 45.220001C 36.866356 45.712345 35.440201 45.975948 34 46C 25.994686 45.717674 19.730221 39.005745 20 31C 19.730221 22.994255 25.994686 16.282326 34 16C 42.005314 16.282326 48.269779 22.994255 48 31C 48.044868 35.685928 45.945393 40.135338 42.299999 43.080002Z"></path></g></g></g></g></g></svg>